<svg xmlns="http://www.w3.org/2000/svg" version="1.1" xmlns:xlink="http://www.w3.org/1999/xlink" xmlns:svgjs="http://svgjs.dev/svgjs" width="1000" height="500" viewBox="0 250 1000 500"><rect width="1000" height="1000" fill="#000000"></rect><g transform="matrix(0.7,0,0,0.7,149.57575757575756,410.4976625163426)"><svg viewBox="0 0 396 101" data-background-color="#ffffff" preserveAspectRatio="xMidYMid meet" height="255" width="1000" xmlns="http://www.w3.org/2000/svg" xmlns:xlink="http://www.w3.org/1999/xlink"><g id="tight-bounds" transform="matrix(1,0,0,1,0.2400000000000091,0.1427791924336077)"><svg viewBox="0 0 395.52 100.71444161513278" height="100.71444161513278" width="395.52"><g><svg viewBox="0 0 395.52 100.71444161513278" height="100.71444161513278" width="395.52"><g><svg viewBox="0 0 395.52 100.71444161513278" height="100.71444161513278" width="395.52"><g id="textblocktransform"><svg viewBox="0 0 395.52 100.71444161513278" height="100.71444161513278" width="395.52" id="textblock"><g><svg viewBox="0 0 395.52 100.71444161513278" height="100.71444161513278" width="395.52"><g transform="matrix(1,0,0,1,0,0)"><svg width="395.52" viewBox="1.75 -35 137.44000244140625 35" height="100.71444161513278" data-palette-color="#89939e"><g class="wordmark-text-0" data-fill-palette-color="primary" id="text-0"><path d="M1.75 0L10.8 0 10.8-1.05 6.65-1.05 6.65-17.15 29.4-17.15 29.4-1.05 25.3-1.05 25.3 0 34.35 0 34.35-1.05 30.45-1.05 30.45-33.95 34.35-33.95 34.35-35 25.3-35 25.3-33.95 29.4-33.95 29.4-18.15 6.65-18.15 6.65-33.95 10.8-33.95 10.8-35 1.75-35 1.75-33.95 5.6-33.95 5.6-1.05 1.75-1.05 1.75 0ZM37.85 0L62.9 0 62.9-7.7 61.85-7.7 61.85-1.05 42.85-1.05 42.85-17.15 60.25-17.15 60.25-18.15 42.85-18.15 42.85-33.95 61.15-33.95 61.15-27.3 62.2-27.3 62.2-35 37.85-35 37.85-33.95 41.8-33.95 41.8-1.05 37.85-1.05 37.85 0ZM66.4 0L91.25 0 91.25-7.7 90.2-7.7 90.2-1.05 71.2-1.05 71.2-33.95 75.35-33.95 75.35-35 66.4-35 66.4-33.95 70.15-33.95 70.15-1.05 66.4-1.05 66.4 0ZM94.74 0L103.79 0 103.79-1.05 99.64-1.05 99.64-33.95 103.79-33.95 103.79-35 94.74-35 94.74-33.95 98.59-33.95 98.59-1.05 94.74-1.05 94.74 0ZM107.29 0L116.34 0 116.34-1.05 112.89-1.05Q115.29-4.9 117.79-8.7 120.29-12.5 122.69-16.35L122.69-16.35 123.14-17.1Q123.69-16.35 124.19-15.5 124.69-14.65 125.19-13.85L125.19-13.85 133.59-1.05 130.14-1.05 130.14 0 139.19 0 139.19-1.05 134.89-1.05Q132.14-5.25 129.42-9.38 126.69-13.5 123.94-17.75L123.94-17.75Q126.59-21.85 129.17-25.85 131.74-29.85 134.34-33.95L134.34-33.95 139.19-33.95 139.19-35 130.14-35 130.14-33.95 133.09-33.95 123.74-19.4 123.34-18.65 122.89-19.4Q120.54-23.05 118.19-26.68 115.84-30.3 113.39-33.95L113.39-33.95 116.34-33.95 116.34-35 107.29-35 107.29-33.95 112.19-33.95 122.54-18 111.69-1.05 107.29-1.05 107.29 0Z" fill="#ffffff" data-fill-palette-color="primary"></path></g></svg></g></svg></g></svg></g></svg></g></svg></g><defs></defs></svg><rect width="395.52" height="100.71444161513278" fill="none" stroke="none" visibility="hidden"></rect></g></svg></g></svg>